<svg viewBox="0 0 589 78" fill="none" xmlns="http://www.w3.org/2000/svg">
<path d="M497.176 74.5854C498.482 74.5854 500.527 74.309 501.548 73.935V67.6091C500.247 67.8855 499.132 67.9791 498.108 67.9791C494.757 67.9791 493.175 66.2146 493.175 61.0027V4.15939H478.844V10.4893H485.359V61.3727C485.359 70.028 488.803 74.5854 497.176 74.5854ZM516.533 61.4702V32.0688H526.301V25.7429H516.533V13.4652H508.717V25.7429H501.271V32.0688H508.717V61.8402C508.717 70.398 512.532 74.5854 521.56 74.5854C522.954 74.5854 525.187 74.309 526.301 73.935V67.6091C524.813 67.8855 523.512 67.9791 522.304 67.9791C518.392 67.9791 516.533 66.5846 516.533 61.4702ZM390.534 30.8614C400.769 30.8614 406.072 38.1182 406.91 46.2126H373.32C374.251 37.3742 380.205 30.8614 390.534 30.8614ZM428.406 49.839C428.406 38.8622 435.388 30.9549 445.25 30.9549C455.209 30.9549 462 39.0451 462 49.839C462 60.6287 455.209 68.7271 445.25 68.7271C435.388 68.7271 428.406 60.8157 428.406 49.839ZM551.522 67.6091H545.008V46.0255C545.008 35.9798 550.127 30.9549 559.151 30.9549C567.248 30.9549 572.461 35.9798 572.461 46.0255V67.6091H565.946V73.935H586.792V67.6091H580.277V46.0255C580.277 34.0243 573.112 24.3485 560.082 24.3485C553.291 24.3485 548.265 26.9545 545.008 31.1419V4.15939H530.677V10.4893H537.192V67.6091H530.677V73.935H551.522V67.6091ZM311.996 33.2803V10.6723H318.974V4.15939H296.921V10.6723H303.899V67.4221H296.921V73.935H318.974V67.4221H311.996V39.6062H346.985V67.4221H340.006V73.935H362.06V67.4221H355.081V10.6723H362.06V4.15939H340.006V10.6723H346.985V33.2803H311.996ZM413.612 61.0027H405.796C403.002 65.8406 397.98 68.8165 390.814 68.8165C379.924 68.8165 374.064 62.2102 373.32 52.4449H414.73V49.0015C414.73 34.3048 405.332 24.3485 390.534 24.3485C375.646 24.3485 365.317 34.8618 365.317 49.839C365.317 64.9096 375.646 75.3294 390.534 75.3294C401.42 75.3294 409.797 69.841 413.612 61.0027ZM461.724 73.935H476.054V67.6091H469.54V32.0688H476.054V25.7429H461.724V32.9063C457.629 27.6049 451.484 24.3485 444.225 24.3485C430.549 24.3485 420.407 35.3252 420.407 49.839C420.407 64.3527 430.549 75.3294 444.225 75.3294C451.484 75.3294 457.629 72.073 461.724 66.7716V73.935Z" fill="black"/>
<path d="M27.1445 2.30105C24.5012 2.30105 21.862 3.30929 19.8409 5.33389L5.22558 19.9452C1.19965 23.97 1.19965 30.5194 5.24185 34.5564L46.4893 75.7925L87.7368 34.5564C91.7749 30.5235 91.7668 23.9781 87.7303 19.9452L73.1272 5.34202C71.1061 3.31335 68.4668 2.30512 65.8276 2.30512C63.1762 2.30512 60.5288 3.32148 58.4996 5.35422L46.491 17.3636L34.462 5.33795C32.4449 3.31335 29.796 2.30105 27.1445 2.30105ZM163.105 4.15897H185.906L197.63 49.1881L210.192 4.15897H232.151L208.703 73.841H186.463L163.105 4.15897ZM167.85 46.7691C166.643 65.0962 154.544 75.7925 134.537 75.7925C112.297 75.7925 98.7101 61.6528 98.7101 39.0488C98.7101 16.2537 112.39 2.20755 134.073 2.20755C154.264 2.20755 166.175 12.4403 167.48 30.4869H146.167C145.517 23.4171 141.515 19.6972 134.35 19.6972C125.603 19.6972 121.231 26.1165 121.231 39.0488C121.231 51.7005 125.977 58.3028 135 58.3028C141.796 58.3028 146.074 54.2089 146.728 46.7691H167.85ZM250.02 52.0705C251.138 57.2824 254.115 59.1444 260.256 59.1444C265.652 59.1444 268.633 57.1889 268.633 54.1154C268.633 49.745 264.631 49.3751 256.348 47.2326C246.669 44.7242 240.435 42.5817 237.552 40.5327C232.151 36.7233 229.549 31.3244 229.549 24.4416C229.549 10.9524 240.154 2.20755 258.674 2.20755C276.636 2.20755 287.242 10.1149 288.453 24.1651H267.327C266.583 19.9777 263.7 18.0222 258.304 18.0222C253.558 18.0222 251.228 19.6037 251.228 22.7666C251.228 26.4906 254.859 27.141 261.561 28.9055C270.215 31.1415 277.099 32.5359 281.471 35.5118C287.616 39.6058 290.405 44.6307 290.405 51.794C290.405 66.9541 279.519 75.7925 259.324 75.7925C240.622 75.7925 229.638 66.9541 228.243 52.0705H250.02Z" fill="#CC0000"/>
</svg>
